<?xml version="1.0" encoding="utf-8"?>
<!-- Svg Vector Icons : http://www.onlinewebfonts.com/icon -->
<!DOCTYPE svg PUBLIC "-//W3C//DTD SVG 1.1//EN" "http://www.w3.org/Graphics/SVG/1.1/DTD/svg11.dtd">
<svg version="1.1" xmlns="http://www.w3.org/2000/svg" xmlns:xlink="http://www.w3.org/1999/xlink" x="0px" y="0px" viewBox="0 0 1000 1000" enable-background="new 0 0 1000 1000" xml:space="preserve">
<metadata> Svg Vector Icons : http://www.onlinewebfonts.com/icon </metadata>
<g><path fill="cornsilk" d="M836.9,429.1c-17.6,0-30.6,14.3-30.6,31.9v390.8c0,42-32.5,77.7-74.4,77.7H162c-41.9,0-90.7-35.7-90.7-77.7V280c0-42.1,48.8-86.9,90.7-86.9h325.7c17.6,0,31.9-13.1,31.9-30.7c0-17.7-14.2-30.7-31.9-30.7H162c-83.8,0-152,64.1-152,148.2v571.8c0,84.1,68.2,139.1,152,139.1h569.9c83.8,0,135.7-55,135.7-139.1V461.1C867.5,443.4,854.5,429.1,836.9,429.1L836.9,429.1z M962.4,82.6l-46.7-46.8c-35.5-35.6-97.9-35.6-133.4,0l-88.2,103.8L224.4,590.2v11l-0.4,1.9l-59.1,200.7l43.4,38.8l189.6-67l2.4,0.5h9.3l449.3-471.3l103.5-84.7C999.2,183.3,999.2,119.5,962.4,82.6L962.4,82.6z M248.4,759.7l27.6-88.1l55.1,55.3L248.4,759.7L248.4,759.7z M387.2,694L306,612.6l420-418.7l78.6,78.8L387.2,694L387.2,694z M918,171.8l-62.6,62.7l-91.1-91.4l62.6-62.7c5.9-5.9,13.8-9.2,22.2-9.2c8.4,0,16.3,3.3,22.2,9.2l46.6,46.8C930.2,139.5,930.2,159.5,918,171.8z"/></g>
</svg>